HIERARCHY
ROOT newVegas:Hips
{
	OFFSET 0.000000 96.479958 0.000000
	CHANNELS 6 Xposition Yposition Zposition Xrotation Yrotation Zrotation
	JOINT newVegas:Pelvis
	{
		OFFSET 0.000000 0.000000 0.000000
		CHANNELS 3 Xrotation Yrotation Zrotation
		JOINT newVegas:LeftUpLeg
		{
			OFFSET 18.735201 -5.666702 -4.541200
			CHANNELS 3 Xrotation Yrotation Zrotation
			JOINT newVegas:LeftLeg
			{
				OFFSET -0.021200 -31.938179 0.493100
				CHANNELS 3 Xrotation Yrotation Zrotation
				JOINT newVegas:LeftFoot
				{
					OFFSET 0.021200 -31.938179 -4.336299
					CHANNELS 3 Xrotation Yrotation Zrotation
					JOINT newVegas:LeftToeBase
					{
						OFFSET 0.943001 -26.722000 15.023500
						CHANNELS 3 Xrotation Yrotation Zrotation
						End Site
						{
							OFFSET 0.000000 30.670183 0.000000
						}
					}
				}
				JOINT newVegas:Left_PantLeg
				{
					OFFSET 0.663870 -9.044666 -1.108900
					CHANNELS 3 Xrotation Yrotation Zrotation
					End Site
					{
						OFFSET 1.415995 20.635357 0.000000
					}
				}
			}
		}
		JOINT newVegas:RightUpLeg
		{
			OFFSET -18.735201 -5.666702 -4.541200
			CHANNELS 3 Xrotation Yrotation Zrotation
			JOINT newVegas:RightLeg
			{
				OFFSET 0.018946 -31.938133 0.493100
				CHANNELS 3 Xrotation Yrotation Zrotation
				JOINT newVegas:RightFoot
				{
					OFFSET -0.018946 -31.938126 -4.336299
					CHANNELS 3 Xrotation Yrotation Zrotation
					JOINT newVegas:RightToeBase
					{
						OFFSET -0.943001 -26.722004 15.023500
						CHANNELS 3 Xrotation Yrotation Zrotation
						End Site
						{
							OFFSET 0.000000 30.670187 0.000000
						}
					}
				}
				JOINT newVegas:Right_PantLeg
				{
					OFFSET -0.661674 -9.044716 -1.108900
					CHANNELS 3 Xrotation Yrotation Zrotation
					End Site
					{
						OFFSET -1.415958 20.635269 0.000000
					}
				}
			}
		}
	}
	JOINT newVegas:Spine
	{
		OFFSET 0.000000 10.199997 -0.299500
		CHANNELS 3 Xrotation Yrotation Zrotation
		JOINT newVegas:Spine1
		{
			OFFSET 0.000000 11.900002 -1.516600
			CHANNELS 3 Xrotation Yrotation Zrotation
			JOINT newVegas:Spine2
			{
				OFFSET 0.000000 13.600006 -2.842500
				CHANNELS 3 Xrotation Yrotation Zrotation
				JOINT newVegas:Neck
				{
					OFFSET 0.000000 9.624100 -2.890100
					CHANNELS 3 Xrotation Yrotation Zrotation
					JOINT newVegas:Head
					{
						OFFSET 0.000000 14.068802 -1.351900
						CHANNELS 3 Xrotation Yrotation Zrotation
						JOINT newVegas:Hair_Back
						{
							OFFSET 0.000000 3.231903 -17.524799
							CHANNELS 3 Xrotation Yrotation Zrotation
							End Site
							{
								OFFSET 0.000000 19.849884 0.000000
							}
						}
						JOINT newVegas:Hair_Front
						{
							OFFSET 0.000000 31.260406 4.573800
							CHANNELS 3 Xrotation Yrotation Zrotation
							JOINT newVegas:Hair_Front1
							{
								OFFSET 0.000000 2.284103 11.993300
								CHANNELS 3 Xrotation Yrotation Zrotation
								JOINT newVegas:Hair_Front2
								{
									OFFSET 0.000000 2.284103 11.993300
									CHANNELS 3 Xrotation Yrotation Zrotation
									End Site
									{
										OFFSET 0.000000 12.208862 0.000000
									}
								}
							}
						}
						JOINT newVegas:Jowel
						{
							OFFSET 0.000000 -7.458206 6.864100
							CHANNELS 3 Xrotation Yrotation Zrotation
							End Site
							{
								OFFSET 0.000000 19.849884 0.000000
							}
						}
					}
				}
				JOINT newVegas:LeftShoulder
				{
					OFFSET 15.263000 10.923401 -0.547700
					CHANNELS 3 Xrotation Yrotation Zrotation
					JOINT newVegas:LeftArm
					{
						OFFSET 25.438599 -2.830597 -13.032500
						CHANNELS 3 Xrotation Yrotation Zrotation
						JOINT newVegas:LeftForeArm
						{
							OFFSET 29.960503 0.000000 0.000000
							CHANNELS 3 Xrotation Yrotation Zrotation
							JOINT newVegas:LeftHand
							{
								OFFSET 27.849251 0.000000 0.000000
								CHANNELS 3 Xrotation Yrotation Zrotation
								JOINT newVegas:LeftHandThumb1
								{
									OFFSET 4.487587 -3.305161 6.305391
									CHANNELS 3 Xrotation Yrotation Zrotation
									JOINT newVegas:LeftHandThumb2
									{
										OFFSET 5.480453 -3.164139 3.164143
										CHANNELS 3 Xrotation Yrotation Zrotation
										JOINT newVegas:LeftHandThumb3
										{
											OFFSET 5.159721 -2.978973 2.978967
											CHANNELS 3 Xrotation Yrotation Zrotation
											End Site
											{
												OFFSET 2.494507 5.926697 1.738678
											}
										}
									}
								}
								JOINT newVegas:LeftHandIndex1
								{
									OFFSET 18.578728 -0.527832 5.208049
									CHANNELS 3 Xrotation Yrotation Zrotation
									JOINT newVegas:LeftHandIndex2
									{
										OFFSET 3.192009 0.000000 0.000000
										CHANNELS 3 Xrotation Yrotation Zrotation
										JOINT newVegas:LeftHandIndex3
										{
											OFFSET 3.835129 0.000000 0.000000
											CHANNELS 3 Xrotation Yrotation Zrotation
											End Site
											{
												OFFSET -0.034599 3.816971 0.371180
											}
										}
									}
								}
								JOINT newVegas:LeftHandMiddle1
								{
									OFFSET 18.476105 0.000000 0.000000
									CHANNELS 3 Xrotation Yrotation Zrotation
									JOINT newVegas:LeftHandMiddle2
									{
										OFFSET 3.324875 0.000000 0.000000
										CHANNELS 3 Xrotation Yrotation Zrotation
										JOINT newVegas:LeftHandMiddle3
										{
											OFFSET 4.596550 0.000000 0.000000
											CHANNELS 3 Xrotation Yrotation Zrotation
											End Site
											{
												OFFSET 0.057701 4.578827 0.399218
											}
										}
									}
								}
								JOINT newVegas:LeftHandRing1
								{
									OFFSET 17.732719 0.121887 -4.201567
									CHANNELS 3 Xrotation Yrotation Zrotation
									JOINT newVegas:LeftHandRing2
									{
										OFFSET 2.733170 0.000000 0.000000
										CHANNELS 3 Xrotation Yrotation Zrotation
										JOINT newVegas:LeftHandRing3
										{
											OFFSET 3.178268 0.000000 0.000000
											CHANNELS 3 Xrotation Yrotation Zrotation
											End Site
											{
												OFFSET 0.119102 3.170624 0.185394
											}
										}
									}
								}
								JOINT newVegas:LeftHandPinky1
								{
									OFFSET 15.989624 -0.606689 -7.535461
									CHANNELS 3 Xrotation Yrotation Zrotation
									JOINT newVegas:LeftHandPinky2
									{
										OFFSET 2.538986 0.000000 0.000000
										CHANNELS 3 Xrotation Yrotation Zrotation
										JOINT newVegas:LeftHandPinky3
										{
											OFFSET 2.593102 0.000000 0.000000
											CHANNELS 3 Xrotation Yrotation Zrotation
											End Site
											{
												OFFSET -0.150902 2.584198 0.152708
											}
										}
									}
								}
							}
							JOINT newVegas:Left_Sleeve
							{
								OFFSET 0.267448 -0.649796 0.577675
								CHANNELS 3 Xrotation Yrotation Zrotation
								End Site
								{
									OFFSET 0.000000 15.991241 0.000000
								}
							}
							JOINT newVegas:Left_CapeC
							{
								OFFSET 15.715958 -8.608795 -6.935905
								CHANNELS 3 Xrotation Yrotation Zrotation
								JOINT newVegas:Left_CapeC1
								{
									OFFSET 0.000000 -8.688499 0.000000
									CHANNELS 3 Xrotation Yrotation Zrotation
									End Site
									{
										OFFSET 0.000000 8.688499 0.000000
									}
								}
							}
						}
						JOINT newVegas:Left_CapeB
						{
							OFFSET 26.118385 -8.608795 -7.079235
							CHANNELS 3 Xrotation Yrotation Zrotation
							JOINT newVegas:Left_CapeB1
							{
								OFFSET 0.000000 -8.688499 0.000000
								CHANNELS 3 Xrotation Yrotation Zrotation
								End Site
								{
									OFFSET 0.000000 8.688499 0.000000
								}
							}
						}
						JOINT newVegas:Left_CapeA
						{
							OFFSET 5.115639 -8.608795 -10.395809
							CHANNELS 3 Xrotation Yrotation Zrotation
							JOINT newVegas:Left_CapeA1
							{
								OFFSET 0.000000 -8.688499 0.000000
								CHANNELS 3 Xrotation Yrotation Zrotation
								End Site
								{
									OFFSET 0.000000 8.688499 0.000000
								}
							}
						}
					}
				}
				JOINT newVegas:RightShoulder
				{
					OFFSET -15.263000 10.923401 -0.547700
					CHANNELS 3 Xrotation Yrotation Zrotation
					JOINT newVegas:RightArm
					{
						OFFSET -25.438599 -2.830597 -13.032500
						CHANNELS 3 Xrotation Yrotation Zrotation
						JOINT newVegas:RightForeArm
						{
							OFFSET -29.960503 0.000000 0.000000
							CHANNELS 3 Xrotation Yrotation Zrotation
							JOINT newVegas:RightHand
							{
								OFFSET -27.849251 0.000000 0.000000
								CHANNELS 3 Xrotation Yrotation Zrotation
								JOINT newVegas:RightHandThumb1
								{
									OFFSET -4.487587 -3.305161 6.305391
									CHANNELS 3 Xrotation Yrotation Zrotation
									JOINT newVegas:RightHandThumb2
									{
										OFFSET -5.480453 -3.164139 3.164143
										CHANNELS 3 Xrotation Yrotation Zrotation
										JOINT newVegas:RightHandThumb3
										{
											OFFSET -5.159721 -2.978973 2.978967
											CHANNELS 3 Xrotation Yrotation Zrotation
											End Site
											{
												OFFSET -2.494507 5.926697 1.738678
											}
										}
									}
								}
								JOINT newVegas:RightHandIndex1
								{
									OFFSET -18.578728 -0.527832 5.208049
									CHANNELS 3 Xrotation Yrotation Zrotation
									JOINT newVegas:RightHandIndex2
									{
										OFFSET -3.192009 0.000000 0.000000
										CHANNELS 3 Xrotation Yrotation Zrotation
										JOINT newVegas:RightHandIndex3
										{
											OFFSET -3.835129 0.000000 0.000000
											CHANNELS 3 Xrotation Yrotation Zrotation
											End Site
											{
												OFFSET 0.034599 3.816971 0.371180
											}
										}
									}
								}
								JOINT newVegas:RightHandMiddle1
								{
									OFFSET -18.476105 0.000000 0.000000
									CHANNELS 3 Xrotation Yrotation Zrotation
									JOINT newVegas:RightHandMiddle2
									{
										OFFSET -3.324875 0.000000 0.000000
										CHANNELS 3 Xrotation Yrotation Zrotation
										JOINT newVegas:RightHandMiddle3
										{
											OFFSET -4.596550 0.000000 0.000000
											CHANNELS 3 Xrotation Yrotation Zrotation
											End Site
											{
												OFFSET -0.057701 4.578827 0.399218
											}
										}
									}
								}
								JOINT newVegas:RightHandRing1
								{
									OFFSET -17.732719 0.121887 -4.201567
									CHANNELS 3 Xrotation Yrotation Zrotation
									JOINT newVegas:RightHandRing2
									{
										OFFSET -2.733170 0.000000 0.000000
										CHANNELS 3 Xrotation Yrotation Zrotation
										JOINT newVegas:RightHandRing3
										{
											OFFSET -3.178268 0.000000 0.000000
											CHANNELS 3 Xrotation Yrotation Zrotation
											End Site
											{
												OFFSET -0.119102 3.170624 0.185394
											}
										}
									}
								}
								JOINT newVegas:RightHandPinky1
								{
									OFFSET -15.989624 -0.606689 -7.535461
									CHANNELS 3 Xrotation Yrotation Zrotation
									JOINT newVegas:RightHandPinky2
									{
										OFFSET -2.538986 0.000000 0.000000
										CHANNELS 3 Xrotation Yrotation Zrotation
										JOINT newVegas:RightHandPinky3
										{
											OFFSET -2.593102 0.000000 0.000000
											CHANNELS 3 Xrotation Yrotation Zrotation
											End Site
											{
												OFFSET 0.150902 2.584198 0.152708
											}
										}
									}
								}
							}
							JOINT newVegas:Right_CapeC
							{
								OFFSET -15.715958 -8.608795 -6.935905
								CHANNELS 3 Xrotation Yrotation Zrotation
								JOINT newVegas:Right_CapeC1
								{
									OFFSET 0.000000 -8.688499 0.000000
									CHANNELS 3 Xrotation Yrotation Zrotation
									End Site
									{
										OFFSET 0.000000 8.688499 0.000000
									}
								}
							}
							JOINT newVegas:Right_Sleeve
							{
								OFFSET -0.267448 -0.649994 0.577675
								CHANNELS 3 Xrotation Yrotation Zrotation
								End Site
								{
									OFFSET 0.000000 15.991302 0.000000
								}
							}
						}
						JOINT newVegas:Right_CapeA
						{
							OFFSET -5.115540 -8.608795 -10.395824
							CHANNELS 3 Xrotation Yrotation Zrotation
							JOINT newVegas:Right_CapeA1
							{
								OFFSET 0.000000 -8.688499 0.000000
								CHANNELS 3 Xrotation Yrotation Zrotation
								End Site
								{
									OFFSET 0.000000 8.688499 0.000000
								}
							}
						}
						JOINT newVegas:Right_CapeB
						{
							OFFSET -26.118187 -8.608795 -7.079266
							CHANNELS 3 Xrotation Yrotation Zrotation
							JOINT newVegas:Right_CapeB1
							{
								OFFSET 0.000000 -8.688499 0.000000
								CHANNELS 3 Xrotation Yrotation Zrotation
								End Site
								{
									OFFSET 0.000000 8.688499 0.000000
								}
							}
						}
					}
				}
				JOINT newVegas:Left_Collar
				{
					OFFSET 18.625099 8.655502 8.828100
					CHANNELS 3 Xrotation Yrotation Zrotation
					JOINT newVegas:Left_Collar1
					{
						OFFSET 14.783401 10.540405 -1.259500
						CHANNELS 3 Xrotation Yrotation Zrotation
						End Site
						{
							OFFSET 0.000000 18.199875 0.000000
						}
					}
				}
				JOINT newVegas:Collar_Back
				{
					OFFSET 0.000000 15.630707 -20.132601
					CHANNELS 3 Xrotation Yrotation Zrotation
					End Site
					{
						OFFSET 0.000000 22.523010 0.000000
					}
				}
				JOINT newVegas:Left_Peck
				{
					OFFSET 17.239599 -5.132599 25.482599
					CHANNELS 3 Xrotation Yrotation Zrotation
					End Site
					{
						OFFSET 0.000000 22.523010 0.000000
					}
				}
				JOINT newVegas:Right_Peck
				{
					OFFSET -17.239599 -5.132202 25.482599
					CHANNELS 3 Xrotation Yrotation Zrotation
					End Site
					{
						OFFSET 0.000000 22.523010 0.000000
					}
				}
				JOINT newVegas:Right_Collar
				{
					OFFSET -18.625099 8.655792 8.828100
					CHANNELS 3 Xrotation Yrotation Zrotation
					JOINT newVegas:Right_Collar1
					{
						OFFSET -14.783401 10.539993 -1.259500
						CHANNELS 3 Xrotation Yrotation Zrotation
						End Site
						{
							OFFSET 0.000000 18.199631 0.000000
						}
					}
				}
			}
		}
		JOINT newVegas:Belly
		{
			OFFSET 0.000000 -6.540398 9.014299
			CHANNELS 3 Xrotation Yrotation Zrotation
			End Site
			{
				OFFSET 0.000000 11.566666 0.000000
			}
		}
	}
	JOINT newVegas:ElvisFacialAnim_Joint
	{
		OFFSET 1.000000 -95.330101 -8.825800
		CHANNELS 3 Xrotation Yrotation Zrotation
		End Site
		{
			OFFSET 0.000000 35.315800 0.000000
		}
	}
}
MOTION
Frames: 4
Frame Time: 0.016667
20.627451 86.820091 4.424543 154.170989 -63.931916 159.766649 0.000001 -0.000001 0.000000 -58.031241 41.313147 58.367935 39.480734 -13.254184 -5.143496 4.868032 7.925673 -3.472224 -0.000000 0.000001 -0.000000 -0.000000 -0.000002 -0.000001 -44.618621 -11.771271 -31.499822 50.633999 -2.930114 6.071470 -15.166076 -4.142774 11.987434 -0.000000 -0.000002 -0.000000 0.000000 -0.000002 0.000001 10.375984 -2.812198 2.245157 5.441872 -1.990659 -3.512889 -3.218472 -5.241830 -2.484904 1.182636 2.684180 -0.078474 1.182647 2.684179 -0.078459 0.000001 -0.000001 -0.000001 1.182710 2.684210 -0.078482 1.182635 2.684184 -0.078472 0.000000 0.000000 -0.000001 0.000001 -0.000001 -0.000001 -1.837981 -14.467486 -4.296794 -24.431875 -9.271237 -47.099229 -14.226254 -27.309258 -17.570313 3.474889 -7.760247 6.842562 20.212992 -4.649830 10.411153 3.371804 17.053171 -9.307528 0.000002 0.000000 -0.000003 -0.754220 0.208581 -13.245169 0.030477 -0.759501 -17.420377 0.000001 -0.000000 0.000001 2.446931 2.844467 -23.035267 -0.021034 -2.027870 -31.425164 0.000001 -0.000002 -0.000001 0.752478 4.505536 -30.750249 -0.981913 -1.227432 -35.970932 0.000002 0.000003 -0.000000 -1.632790 3.694677 -37.232741 -0.950058 -0.779058 -32.064572 0.000001 -0.000000 0.000002 -0.000000 0.000000 0.000002 -0.000000 0.000000 0.000002 -0.000001 0.000000 0.000002 0.000002 -0.000002 0.000001 0.000003 -0.000002 0.000002 0.000002 -0.000002 0.000001 0.000001 -0.000001 0.000001 -5.499247 24.268048 2.019076 -13.675020 -20.288501 57.835153 13.715966 34.549416 -4.170639 13.832398 22.666575 12.809467 55.149577 18.649550 -29.698308 -0.442565 -14.180550 7.313158 0.000002 -0.000000 0.000003 5.673420 7.585001 36.844171 1.050429 3.824532 68.900230 -0.000000 0.000003 -0.000001 -0.125698 1.886102 45.000756 -1.169028 3.204668 68.417677 -0.000004 -0.000001 0.000001 -5.312004 1.216661 58.508801 -0.745226 1.667571 48.011278 0.000001 -0.000001 -0.000001 -7.756791 -9.376467 47.263990 -0.526054 1.541625 45.600508 -0.000002 0.000002 -0.000001 0.000000 -0.000001 -0.000001 0.000000 0.000001 0.000001 0.000000 -0.000001 -0.000001 -0.000000 0.000001 -0.000002 -0.000000 0.000002 -0.000003 -0.000000 0.000001 -0.000002 -0.000000 0.000002 -0.000003 0.000002 0.000001 -0.000000 0.000002 0.000001 -0.000000 0.000002 0.000001 -0.000000 0.000002 0.000001 -0.000000 0.000002 0.000001 -0.000000 0.000002 0.000001 -0.000000 0.000002 0.000001 -0.000000 0.000000 0.000002 -0.000000 0.000001 -0.000001 0.000000 
20.658894 86.736000 3.810427 154.859936 -62.543578 160.554743 -0.000000 0.000003 -0.000001 -60.102400 40.434245 59.543984 39.805140 -14.793628 -4.821698 6.658161 7.042581 -1.358151 0.000001 -0.000001 -0.000000 -0.000000 0.000001 -0.000000 -45.375686 -11.484494 -30.812807 51.169551 -2.638790 6.152934 -15.620006 -3.514236 11.257111 0.000000 0.000002 -0.000000 0.000002 -0.000001 0.000001 10.486031 -2.789195 2.225451 5.299429 -1.863426 -3.688210 -3.740329 -4.710132 -2.529083 1.183793 2.774766 -0.140983 1.183800 2.774776 -0.140980 -0.000002 0.000000 -0.000001 1.183787 2.774755 -0.140983 1.183808 2.774747 -0.140978 -0.000000 0.000001 -0.000000 -0.000002 0.000000 -0.000001 -1.833824 -14.445309 -4.259441 -24.484048 -9.447711 -47.266763 -14.703154 -28.284799 -17.623220 3.654397 -8.621954 6.264442 20.213252 -4.649934 10.411314 3.371626 17.053297 -9.307561 0.000002 -0.000002 0.000000 -0.754205 0.208576 -13.245189 0.030185 -0.759576 -17.420339 -0.000001 -0.000003 0.000001 2.446876 2.844499 -23.035271 -0.021104 -2.027792 -31.425205 -0.000001 -0.000004 -0.000002 0.752476 4.505416 -30.750270 -0.981765 -1.227678 -35.970935 0.000000 0.000001 0.000001 -1.632798 3.694702 -37.232724 -0.949865 -0.779175 -32.064603 -0.000002 -0.000002 0.000001 -0.000002 -0.000001 0.000001 -0.000002 -0.000001 0.000001 -0.000002 -0.000001 0.000002 -0.000000 -0.000003 0.000001 0.000000 -0.000003 0.000002 -0.000000 -0.000003 0.000001 -0.000001 -0.000003 0.000001 -5.518096 24.192602 2.050976 -13.471670 -20.142006 57.616634 14.645637 34.292508 -4.668594 13.381618 22.766216 12.759863 55.149574 18.649555 -29.698305 -0.442567 -14.180554 7.313154 0.000000 -0.000000 -0.000002 5.673419 7.585003 36.844165 1.050429 3.824531 68.900237 -0.000001 0.000000 -0.000003 -0.125701 1.886103 45.000753 -1.169028 3.204669 68.417670 0.000002 0.000001 -0.000001 -5.312009 1.216660 58.508787 -0.745221 1.667574 48.011281 -0.000002 -0.000001 -0.000000 -7.756790 -9.376468 47.263987 -0.526052 1.541627 45.600508 -0.000003 0.000001 0.000001 0.000000 0.000001 0.000002 0.000001 0.000000 0.000000 0.000000 0.000001 0.000002 -0.000002 0.000001 -0.000001 -0.000002 0.000001 -0.000002 -0.000002 0.000001 -0.000001 -0.000002 0.000001 -0.000002 0.000002 0.000002 -0.000000 0.000002 0.000002 -0.000000 0.000002 0.000002 -0.000000 0.000002 0.000002 -0.000000 0.000002 0.000002 -0.000000 0.000002 0.000002 -0.000000 0.000002 0.000002 -0.000000 -0.000000 0.000001 -0.000002 -0.000000 0.000003 -0.000001 
20.652651 86.648903 3.209661 155.484434 -61.224108 161.301788 -0.000000 0.000002 -0.000001 -61.869561 39.630103 60.346572 39.828015 -16.168854 -4.479442 8.534375 6.232317 0.635651 -0.000000 0.000000 0.000000 -0.000000 0.000002 0.000001 -46.041711 -11.195071 -30.163266 51.705966 -2.369399 6.190980 -16.089477 -2.929589 10.622992 -0.000000 -0.000000 -0.000000 0.000001 -0.000003 0.000002 10.546460 -2.754512 2.191524 5.170760 -1.727738 -3.885305 -4.258834 -4.169644 -2.589051 1.240235 2.831153 -0.118609 1.240245 2.831156 -0.118615 -0.000001 0.000001 -0.000000 1.240243 2.831124 -0.118597 1.240321 2.831173 -0.118620 -0.000001 -0.000001 -0.000001 -0.000001 0.000001 -0.000000 -1.831040 -14.578219 -4.183432 -24.473708 -9.331603 -47.461168 -15.137499 -29.354855 -17.695166 3.798886 -9.351032 5.643279 20.213503 -4.650040 10.411465 3.371489 17.053440 -9.307638 0.000002 0.000002 -0.000001 -0.754153 0.208584 -13.245181 0.029919 -0.759678 -17.420356 0.000001 -0.000001 -0.000002 2.446839 2.844509 -23.035259 -0.021167 -2.027671 -31.425185 0.000001 0.000001 0.000000 0.752477 4.505309 -30.750256 -0.981621 -1.227894 -35.970908 0.000000 -0.000002 0.000000 -1.632802 3.694694 -37.232748 -0.949724 -0.779233 -32.064572 -0.000002 0.000000 0.000001 0.000001 -0.000001 0.000001 0.000001 -0.000001 0.000001 0.000000 -0.000001 0.000002 0.000001 -0.000003 0.000005 0.000002 -0.000003 0.000005 0.000001 -0.000003 0.000005 0.000000 -0.000002 0.000004 -5.543636 24.107506 2.123106 -13.173061 -20.156848 57.392331 15.493927 34.171013 -5.133767 12.981440 22.876421 12.755365 55.149574 18.649555 -29.698308 -0.442565 -14.180555 7.313166 0.000000 0.000001 -0.000004 5.673416 7.584998 36.844168 1.050429 3.824531 68.900237 -0.000000 -0.000000 0.000003 -0.125702 1.886103 45.000766 -1.169023 3.204669 68.417677 -0.000003 -0.000000 -0.000000 -5.312008 1.216660 58.508794 -0.745223 1.667568 48.011275 -0.000004 0.000001 -0.000000 -7.756792 -9.376468 47.263990 -0.526052 1.541618 45.600508 0.000000 0.000001 0.000001 0.000001 0.000001 0.000001 -0.000000 -0.000002 0.000000 0.000001 0.000001 0.000001 0.000001 -0.000001 -0.000003 0.000001 -0.000001 -0.000003 0.000001 -0.000001 -0.000003 0.000001 -0.000001 -0.000003 -0.000000 0.000000 0.000001 -0.000000 0.000000 0.000001 -0.000000 0.000000 0.000001 -0.000000 0.000000 0.000001 -0.000000 0.000000 0.000001 -0.000000 0.000000 0.000001 -0.000000 0.000000 0.000001 -0.000000 0.000002 -0.000000 -0.000000 0.000002 -0.000001 
20.619579 86.558479 2.549616 156.032625 -59.944213 162.035856 0.000000 0.000000 -0.000000 -63.241015 38.975679 60.753180 39.481874 -17.330659 -4.157498 10.314557 5.440027 2.391053 0.000000 -0.000000 -0.000003 -0.000000 -0.000001 -0.000000 -46.666919 -10.888063 -29.524784 52.329815 -2.125148 6.174049 -16.660667 -2.376382 10.043791 -0.000000 0.000000 -0.000000 -0.000001 -0.000003 0.000000 10.569937 -2.715523 2.151524 5.077508 -1.603212 -4.097630 -4.749408 -3.642993 -2.662469 1.243511 2.949433 -0.253881 1.243508 2.949451 -0.253894 -0.000000 0.000000 -0.000000 1.243439 2.949415 -0.253877 1.243590 2.949489 -0.253906 -0.000001 0.000001 -0.000000 -0.000000 0.000000 -0.000000 -1.821997 -14.611916 -4.119282 -24.396498 -9.365106 -47.588011 -15.736300 -30.089931 -17.677851 3.879463 -10.256081 4.806040 20.213735 -4.650136 10.411652 3.371288 17.053563 -9.307699 -0.000001 -0.000005 -0.000002 -0.754131 0.208551 -13.245180 0.029624 -0.759766 -17.420343 0.000002 -0.000004 -0.000002 2.446779 2.844546 -23.035236 -0.021231 -2.027559 -31.425164 -0.000000 -0.000004 -0.000001 0.752463 4.505222 -30.750212 -0.981488 -1.228068 -35.970904 0.000001 0.000001 0.000001 -1.632795 3.694659 -37.232727 -0.949574 -0.779296 -32.064583 -0.000000 -0.000002 -0.000000 -0.000001 -0.000001 -0.000001 -0.000001 -0.000001 -0.000001 -0.000002 -0.000001 -0.000001 0.000002 -0.000001 -0.000000 0.000002 -0.000001 0.000000 0.000002 -0.000001 -0.000000 0.000001 0.000000 -0.000001 -5.569916 24.018592 2.202747 -12.836173 -20.262258 57.156416 16.241543 34.139621 -5.554869 12.609193 23.011181 12.781494 55.149574 18.649553 -29.698308 -0.442567 -14.180552 7.313160 0.000001 -0.000002 -0.000003 5.673414 7.584999 36.844168 1.050427 3.824530 68.900237 0.000001 0.000001 0.000001 -0.125700 1.886102 45.000756 -1.169034 3.204670 68.417677 -0.000005 0.000001 -0.000000 -5.312009 1.216664 58.508794 -0.745228 1.667570 48.011275 -0.000000 -0.000001 -0.000000 -7.756791 -9.376470 47.263987 -0.526052 1.541624 45.600508 0.000002 0.000003 0.000001 0.000000 0.000001 -0.000002 0.000000 0.000001 -0.000000 0.000000 0.000001 -0.000000 0.000000 0.000000 0.000002 0.000000 0.000000 -0.000001 0.000000 0.000000 0.000002 0.000001 -0.000000 0.000001 -0.000001 0.000002 -0.000000 -0.000001 0.000002 -0.000000 -0.000001 0.000002 -0.000000 -0.000001 0.000002 -0.000000 -0.000001 0.000002 -0.000000 -0.000001 0.000002 -0.000000 -0.000001 0.000002 -0.000000 0.000002 0.000001 -0.000000 0.000000 0.000000 -0.000000 
